<svg width="200" height="200" viewBox="0 0 200 200" fill="none" xmlns="http://www.w3.org/2000/svg">
<path fill-rule="evenodd" clip-rule="evenodd" d="M100.747 26.9518C168.769 26.9518 142.261 139.675 100.747 139.675C61.5399 139.675 32.7245 26.9518 100.747 26.9518Z" fill="#FFE8BE"/>
<path d="M100.014 197.536C154.562 197.536 198.782 153.316 198.782 98.7678C198.782 44.2198 154.562 0 100.014 0C45.4664 0 1.24658 44.2198 1.24658 98.7678C1.24658 153.316 45.4664 197.536 100.014 197.536Z" fill="#485A69"/>
<path fill-rule="evenodd" clip-rule="evenodd" d="M170.006 168.452C168.062 163.779 168.427 159.125 152.857 151.873C145.528 150.14 126.615 147.657 123.041 141.005C121.232 137.642 121.667 132.902 121.667 124.09L80.3378 123.633C80.3378 132.512 80.6862 137.246 78.6629 140.57C74.8592 146.826 50.1033 151.387 42.4224 153.433C29.3396 159.247 30.8355 162.782 29.1094 167.516C38.239 176.934 49.1533 184.439 61.2152 189.593C73.277 194.746 86.2447 197.446 99.3612 197.533C112.478 197.62 125.48 195.093 137.609 190.101C149.739 185.108 160.752 177.748 170.006 168.452Z" fill="#F9DCA4"/>
<path fill-rule="evenodd" clip-rule="evenodd" d="M170.006 168.452C168.165 164.029 168.392 159.621 155.219 153.014C154.49 152.522 153.693 152.137 152.854 151.873C151.294 151.502 148.507 150.959 147.126 150.684C143.396 173.483 85.4776 204.584 54.5718 150.533C51.2476 151.313 44.2826 152.937 42.4224 153.433C29.3396 159.247 30.8355 162.785 29.1094 167.516C38.239 176.934 49.1533 184.439 61.2152 189.593C73.277 194.746 86.2447 197.446 99.3612 197.533C112.478 197.62 125.48 195.093 137.609 190.1C149.739 185.108 160.752 177.748 170.006 168.452Z" fill="#9F82BB"/>
<mask id="mask0_1_20" style="mask-type:luminance" maskUnits="userSpaceOnUse" x="29" y="150" width="142" height="48">
<path fill-rule="evenodd" clip-rule="evenodd" d="M170.006 168.452C168.165 164.029 168.392 159.621 155.219 153.014C154.49 152.522 153.693 152.137 152.854 151.873C151.294 151.502 148.507 150.959 147.126 150.684C143.396 173.483 85.4776 204.584 54.5718 150.533C51.2476 151.313 44.2826 152.937 42.4224 153.433C29.3396 159.247 30.8355 162.785 29.1094 167.516C38.239 176.934 49.1533 184.439 61.2152 189.593C73.277 194.746 86.2447 197.446 99.3612 197.533C112.478 197.62 125.48 195.093 137.609 190.1C149.739 185.108 160.752 177.748 170.006 168.452Z" fill="white"/>
</mask>
<g mask="url(#mask0_1_20)">
<path d="M49.5883 167.506C52.3438 167.506 54.5775 165.272 54.5775 162.517C54.5775 159.761 52.3438 157.527 49.5883 157.527C46.8328 157.527 44.5991 159.761 44.5991 162.517C44.5991 165.272 46.8328 167.506 49.5883 167.506Z" fill="white"/>
<path d="M54.5456 187.438C57.3012 187.438 59.5351 185.204 59.5351 182.449C59.5351 179.693 57.3012 177.459 54.5456 177.459C51.79 177.459 49.5562 179.693 49.5562 182.449C49.5562 185.204 51.79 187.438 54.5456 187.438Z" fill="white"/>
<path d="M78.1273 188.45C80.8828 188.45 83.1166 186.216 83.1166 183.461C83.1166 180.705 80.8828 178.472 78.1273 178.472C75.3719 178.472 73.1381 180.705 73.1381 183.461C73.1381 186.216 75.3719 188.45 78.1273 188.45Z" fill="white"/>
<path d="M102.974 200C105.73 200 107.964 197.766 107.964 195.011C107.964 192.255 105.73 190.021 102.974 190.021C100.219 190.021 97.9851 192.255 97.9851 195.011C97.9851 197.766 100.219 200 102.974 200Z" fill="white"/>
<path d="M127.939 186.877C130.695 186.877 132.929 184.644 132.929 181.888C132.929 179.132 130.695 176.899 127.939 176.899C125.184 176.899 122.95 179.132 122.95 181.888C122.95 184.644 125.184 186.877 127.939 186.877Z" fill="white"/>
<path d="M151.636 187.392C154.392 187.392 156.626 185.158 156.626 182.403C156.626 179.647 154.392 177.413 151.636 177.413C148.881 177.413 146.647 179.647 146.647 182.403C146.647 185.158 148.881 187.392 151.636 187.392Z" fill="white"/>
<path d="M153.315 166.582C156.07 166.582 158.304 164.349 158.304 161.593C158.304 158.838 156.07 156.604 153.315 156.604C150.559 156.604 148.326 158.838 148.326 161.593C148.326 164.349 150.559 166.582 153.315 166.582Z" fill="white"/>
</g>
<path fill-rule="evenodd" clip-rule="evenodd" d="M145.844 118.161C150.202 119.799 154.995 119.862 159.393 118.338C163.792 116.815 167.519 113.801 169.929 109.818L181.756 115.421C181.756 115.421 173.413 135.037 155.168 130.892C148.373 129.348 144.074 127.536 140.149 126.794C127.369 124.381 122.92 136.562 136.936 139.934C144.655 141.788 154.692 139.8 157.131 135.21C161.478 141.047 154.308 151.08 147.909 150.84C130.345 150.175 121.52 142.571 121.629 132.653C121.741 122.316 129.342 112.787 145.844 118.161Z" fill="#E9573E"/>
<path fill-rule="evenodd" clip-rule="evenodd" d="M78.7844 125.209C78.0837 126.381 77.8703 127.781 78.1898 129.108C78.4885 132.962 77.9991 136.836 76.7515 140.494C68.8948 153.746 111.806 176.044 128.677 145.512C130.882 142.207 121.235 139.174 124.336 128.987C124.517 128.55 124.587 128.076 124.54 127.605C124.493 127.135 124.33 126.684 124.066 126.292C123.802 125.9 123.445 125.58 123.027 125.359C122.609 125.139 122.143 125.026 121.67 125.03C121.67 125.03 104.589 139.353 78.7844 125.209Z" fill="#E9573E"/>
<mask id="mask1_1_20" style="mask-type:luminance" maskUnits="userSpaceOnUse" x="75" y="125" width="55" height="36">
<path fill-rule="evenodd" clip-rule="evenodd" d="M78.7844 125.209C78.0837 126.381 77.8703 127.781 78.1898 129.108C78.4885 132.962 77.9991 136.836 76.7515 140.494C68.8948 153.746 111.806 176.044 128.677 145.512C130.882 142.207 121.235 139.174 124.336 128.987C124.517 128.55 124.587 128.076 124.54 127.605C124.493 127.135 124.33 126.684 124.066 126.292C123.802 125.9 123.445 125.58 123.027 125.359C122.609 125.139 122.143 125.026 121.67 125.03C121.67 125.03 104.589 139.353 78.7844 125.209Z" fill="white"/>
</mask>
<g mask="url(#mask1_1_20)">
<path opacity="0.11" fill-rule="evenodd" clip-rule="evenodd" d="M121.677 123.949L127.082 126.669C127.21 129.45 127.366 141.373 129.326 144.368C123.55 157.633 84.1447 155.261 78.5862 123.431L121.677 123.949Z" fill="black"/>
</g>
<path fill-rule="evenodd" clip-rule="evenodd" d="M62.3294 77.298C52.8745 81.4214 60.9166 100.983 66.8683 100.897C64.3988 93.2451 62.8745 85.32 62.3294 77.298Z" fill="#F9DCA4"/>
<path fill-rule="evenodd" clip-rule="evenodd" d="M140.311 77.2949C149.773 81.4246 141.727 100.983 135.776 100.897C138.245 93.2441 139.768 85.3178 140.311 77.2949Z" fill="#F9DCA4"/>
<path fill-rule="evenodd" clip-rule="evenodd" d="M100.699 27.6998C128.578 27.6998 140.26 47.5174 140.976 70.4258C141.958 101.782 122.837 138.924 100.702 138.924C79.7337 138.924 60.0888 100.51 61.281 68.834C62.1121 46.6096 73.472 27.6998 100.699 27.6998Z" fill="#FFE8BE"/>
<path fill-rule="evenodd" clip-rule="evenodd" d="M123.863 53.0183C123.307 55.3453 113.718 73.0692 99.3019 79.0273C101.718 74.8176 105.599 69.7833 105.88 64.9632C98.9695 75.1053 70.7742 85.2187 54.0987 80.2739C50.3558 18.507 97.7197 19.9965 100.919 20.1691C104.122 19.9965 151.604 19.0824 147.861 80.8428C129.21 77.3588 122.834 63.1253 123.863 53.0183Z" fill="#ECBE6A"/>
<path fill-rule="evenodd" clip-rule="evenodd" d="M54.7987 63.218C58.8613 4.13294 144.067 6.41196 147.11 63.218C133.059 23.6532 66.8011 24.2637 54.7987 63.218Z" fill="#E9573E"/>
<path fill-rule="evenodd" clip-rule="evenodd" d="M140.801 78.8131C140.801 78.8131 133.484 113.034 109.991 126.215C185.195 106.283 160.771 22.9404 131.077 22.8956C121.862 -2.23749 52.9257 4.67628 43.3365 53.1014C33.7474 101.527 75.0542 122.664 78.3273 124.611C73.2732 117.248 69.2058 109.256 66.229 100.836C62.9479 98.8403 60.5043 95.7197 59.3536 92.0557C58.177 88.5423 57.9434 84.7816 58.6759 81.1497C56.3554 80.7309 54.5718 80.2706 54.5718 80.2706C54.143 74.9307 54.2072 69.5626 54.7636 64.2344C56.0102 51.7877 60.4819 35.1601 76.5948 26.0473C87.8557 19.6801 112.135 17.8965 126.752 27.0957C143.891 37.8803 148.555 61.265 147.375 80.2419L140.801 78.8131Z" fill="#D6A956"/>
</svg>
