<svg width="201" height="201" viewBox="0 0 201 201" fill="none" xmlns="http://www.w3.org/2000/svg">
<g clip-path="url(#clip0_1_71)">
<path d="M100.335 200.67C155.749 200.67 200.67 155.749 200.67 100.335C200.67 44.9215 155.749 0 100.335 0C44.9215 0 0 44.9215 0 100.335C0 155.749 44.9215 200.67 100.335 200.67Z" fill="#FFC200"/>
<path fill-rule="evenodd" clip-rule="evenodd" d="M170.755 171.797C151.82 190.461 126.251 200.845 99.6641 200.668C73.0776 200.491 47.6488 189.767 28.9641 170.853C31.3537 164.244 35.9948 158.689 42.0726 155.163C46.169 152.134 50.6108 149.603 55.3046 147.623C48.1674 123.098 67.5689 111.041 74.9917 107.57C74.9917 118.893 85.5935 111.379 98.7507 111.522C109.583 111.642 131.004 122.546 131.004 108.161C142.921 111.687 155.909 134.397 146.97 148.35C150.635 150.142 154.098 152.322 157.299 154.851C163.557 158.833 168.296 164.799 170.755 171.797Z" fill="#677079"/>
<path fill-rule="evenodd" clip-rule="evenodd" d="M78.0343 125.598L126.481 125.89V137.05L126.458 137.222C126.425 137.728 126.349 138.23 126.231 138.723L126.069 139.83L125.971 140.06C122.834 156.536 109.109 162.904 100.634 167.339C91.7045 162.475 79.0798 153.711 78.0765 138.206L78.0343 138.015V137.365C78.0273 137.141 78.023 136.917 78.0213 136.693C78.0213 136.81 78.031 136.92 78.0343 137.037V125.598Z" fill="#F9DCA4"/>
<path opacity="0.11" fill-rule="evenodd" clip-rule="evenodd" d="M126.484 125.393V138.398C126.475 139.603 126.372 140.806 126.176 141.996C125.93 143.468 125.516 144.907 124.942 146.285C108.109 158.997 81.2879 148.571 77.0049 126.858L126.484 125.393Z" fill="black"/>
<path fill-rule="evenodd" clip-rule="evenodd" d="M58.7855 81.9406C42.7448 86.0644 56.3826 105.612 66.4713 105.527C62.4028 98.2385 59.7923 90.2272 58.7855 81.9406Z" fill="#F9DCA4"/>
<path fill-rule="evenodd" clip-rule="evenodd" d="M142.343 81.9406C158.384 86.0644 144.746 105.612 134.654 105.524C138.724 98.2367 141.335 90.2264 142.343 81.9406Z" fill="#F9DCA4"/>
<path fill-rule="evenodd" clip-rule="evenodd" d="M99.7931 36.8903C166.433 36.8903 140.463 142.246 99.7931 142.246C61.3799 142.246 33.1529 36.8903 99.7931 36.8903Z" fill="#FFE8BE"/>
<path fill-rule="evenodd" clip-rule="evenodd" d="M68.3417 71.7771C68.9102 72.4002 69.3318 73.1429 69.5755 73.9505C69.8191 74.758 69.8787 75.6099 69.7497 76.4435C69.6208 77.2771 69.3066 78.0712 68.8303 78.7674C68.3539 79.4636 67.7276 80.0441 66.9974 80.4663C62.2891 84.3401 62.117 97.848 62.117 97.848C60.2986 96.0426 60.3408 86.3728 56.3989 80.7845C52.4569 75.1963 49.8007 36.0947 71.8453 21.8757C70.4906 23.469 69.5144 25.3484 68.9897 27.3729C68.465 29.3974 68.4055 31.5145 68.8158 33.5652C68.8158 33.5652 84.1291 11.6051 109.534 12.2383C107.52 13.3365 105.76 14.8468 104.369 16.6706C102.977 18.4945 101.986 20.5911 101.459 22.8238C101.459 22.8238 123.669 13.6605 142.177 24.561C137.365 25.891 132.814 28.0288 128.718 30.8831C137.706 31.1299 146.392 32.7989 152.942 38.6242C151.532 39.0767 150.227 39.8072 149.105 40.7723C147.982 41.7375 147.065 42.9179 146.406 44.2437C145.747 45.5695 145.361 47.0138 145.27 48.4914C145.179 49.969 145.385 51.4498 145.876 52.8465C148.655 64.2211 148.915 74.8034 146.223 80.4923C143.531 86.1812 142.262 82.5087 140.577 94.4386C140.494 95.2445 140.225 96.0202 139.791 96.7043C139.357 97.3885 138.77 97.9623 138.076 98.3806C138.011 99.2443 139.317 86.1845 135.95 82.7068C132.586 79.2324 134.699 74.9625 136.044 72.4362C145.428 54.8142 117.324 46.8296 101.962 46.8491C88.6393 46.8653 56.5028 52.9212 68.3417 71.7771Z" fill="#8A5C42"/>
<path fill-rule="evenodd" clip-rule="evenodd" d="M64.2601 159.634C64.3575 159.757 98.0883 203.414 137.742 158.984C132.952 172.142 112.294 182.591 100.478 182.558C77.9109 182.493 65.4225 164.375 64.2601 159.634Z" fill="#434955"/>
<path fill-rule="evenodd" clip-rule="evenodd" d="M117.987 199.122C116.655 199.356 115.317 199.56 113.97 199.745V170.726C114.019 170.24 114.257 169.792 114.632 169.479C115.007 169.166 115.49 169.012 115.977 169.05C116.464 169.011 116.948 169.165 117.323 169.478C117.699 169.791 117.937 170.239 117.987 170.726V199.122ZM86.1001 199.661C84.7536 199.468 83.4147 199.252 82.0834 199.011V170.726C82.1328 170.24 82.3704 169.792 82.7454 169.479C83.1204 169.166 83.603 169.012 84.0901 169.05C84.5782 169.011 85.0625 169.164 85.4389 169.477C85.8154 169.79 86.0539 170.239 86.1033 170.726L86.1001 199.661Z" fill="#E6E6E6"/>
</g>
<defs>
<clipPath id="clip0_1_71">
<rect width="200.67" height="200.67" fill="white"/>
</clipPath>
</defs>
</svg>
