<svg width="200" height="200" viewBox="0 0 200 200" fill="none" xmlns="http://www.w3.org/2000/svg">
<g clip-path="url(#clip0_1_160)">
<path d="M100 200C155.228 200 200 155.228 200 100C200 44.7715 155.228 0 100 0C44.7715 0 0 44.7715 0 100C0 155.228 44.7715 200 100 200Z" fill="#E9573E"/>
<path fill-rule="evenodd" clip-rule="evenodd" d="M75.2591 125.178L126.738 125.661V137.366L149.399 148.172L98.6314 195.806L55.0681 146.162L75.2591 137.567V125.178Z" fill="#F9DCA4"/>
<path fill-rule="evenodd" clip-rule="evenodd" d="M173.069 168.263C163.724 178.291 152.413 186.284 139.841 191.745C127.27 197.206 113.707 200.016 100 200.001C95.8493 200 91.7023 199.744 87.5828 199.234C74.949 197.423 62.7253 193.433 51.4565 187.441C41.9462 182.147 33.3596 175.344 26.0325 167.295L30.1846 157.263L66.8449 140.907C69.6766 155.586 80.5504 178.237 99.777 191.075C108.77 185.644 116.574 178.454 122.722 169.936C128.871 161.418 133.237 151.747 135.56 141.502L168.127 157.369L173.069 168.263Z" fill="#677079"/>
<path opacity="0.11" fill-rule="evenodd" clip-rule="evenodd" d="M128.774 138.334C131.13 139.457 135.159 141.337 135.551 141.567C128.981 162.175 84.6766 169.722 71.6151 139.12L128.774 138.334Z" fill="black"/>
<path fill-rule="evenodd" clip-rule="evenodd" d="M100.741 27.2881C169.612 27.2881 142.771 141.418 100.741 141.418C61.0455 141.418 31.8706 27.2881 100.741 27.2881Z" fill="#FFE8BE"/>
<path fill-rule="evenodd" clip-rule="evenodd" d="M59.4339 77.8158C49.4985 82.1524 57.9452 102.693 64.1976 102.599C61.6045 94.5633 60.0047 86.2403 59.4339 77.8158Z" fill="#F9DCA4"/>
<path fill-rule="evenodd" clip-rule="evenodd" d="M142.848 77.8158C152.784 82.1491 144.337 102.693 138.088 102.599C140.679 94.563 142.278 86.2401 142.848 77.8158Z" fill="#F9DCA4"/>
<path fill-rule="evenodd" clip-rule="evenodd" d="M75.7155 49.9581C73.7996 58.916 74.4728 67.8222 65.9808 69.4662C63.9614 69.8546 62.6248 72.5892 62.1879 75.0002C61.203 80.2595 60.7907 85.6101 60.9581 90.9582C61.2947 92.7996 59.6766 87.4242 59.6766 87.4242L59.4015 77.1523C59.4015 77.1523 59.2818 75.1847 59.3271 72.1847C59.4242 66.1005 60.1167 56.2364 63.1976 53.2202C67.7964 48.7218 75.7155 49.9581 75.7155 49.9581Z" fill="#AD835F"/>
<path fill-rule="evenodd" clip-rule="evenodd" d="M126.521 49.9581C128.437 58.916 127.767 67.8222 136.256 69.4662C138.276 69.8546 139.615 72.5892 140.049 75.0002C140.993 80.2811 141.332 85.6524 141.059 91.01C140.719 92.8547 142.337 87.476 142.337 87.476L142.874 77.1912C142.874 77.1912 142.955 75.1847 142.907 72.1847C142.816 66.1005 142.123 56.2364 139.039 53.2202C134.441 48.7218 126.521 49.9581 126.521 49.9581Z" fill="#AD835F"/>
<path fill-rule="evenodd" clip-rule="evenodd" d="M82.0844 150.411C77.1977 145.696 73.2883 142.039 69.7413 138.379C65.1944 133.683 63.6539 128.923 62.7704 120.586C60.7652 106.18 59.638 91.6659 59.395 77.1232C59.395 77.1232 62.7413 97.6184 68.9808 107.722C72.1847 112.91 85.2915 100.716 90.5181 98.8612C92.2952 98.0389 94.298 97.8414 96.2015 98.3009C98.1049 98.7603 99.7972 99.8496 101.004 101.392C102.188 99.847 103.865 98.7536 105.756 98.2933C107.648 97.8329 109.64 98.0333 111.402 98.8612C116.631 100.716 129.557 111.133 132.942 107.722C141.081 99.5149 142.835 77.1524 142.835 77.1524C142.495 91.8573 141.275 106.529 139.182 121.088C138.007 129.975 137.411 133.418 134.373 136.894C129.912 141.903 124.957 146.45 119.583 150.463C116.903 152.586 112.246 154.58 100.382 154.509C89.3595 154.444 84.8385 153.068 82.0844 150.411Z" fill="#60350A"/>
<path fill-rule="evenodd" clip-rule="evenodd" d="M128.169 51.7704C129.885 51.4382 131.662 51.6408 133.259 52.351C134.857 53.0611 136.198 54.2445 137.101 55.7413C142.136 64.1976 142.554 65.2882 142.554 65.2882C142.554 65.2882 141.958 50.162 141.599 48.3626C142.032 47.9639 142.604 47.7502 143.192 47.7672C143.78 47.7841 144.339 48.0303 144.748 48.4532C145.104 49.1717 143.311 33.2428 133.955 30.1878C130.534 20.4726 118.57 13.2751 118.57 13.2751L118.03 18.6732C116.825 15.0086 114.565 11.7809 111.534 9.39473C108.503 7.00851 104.836 5.56982 100.991 5.25891C103.149 7.68934 102.631 9.46604 102.631 9.46604C99.2642 8.05537 95.6408 7.35891 91.9906 7.42073C92.4437 10.2978 89.1136 13.3593 89.1136 13.3593C89.1136 13.3593 87.0456 10.2071 78.8579 9.12947C77.4177 14.3463 74.7155 15.246 72.1103 17.6764C69.9215 19.918 67.9081 22.3242 66.0876 24.8739C66.0876 24.8739 66.3562 19.835 68.1556 18.3949C68.8319 17.9483 52.8934 24.2298 60.8675 47.6377C59.439 47.603 58.0405 48.0512 56.8982 48.9098C55.756 49.7684 54.9367 50.9872 54.573 52.3691C59.0714 53.628 57.2105 60.4274 59.7284 64.8352C61.4986 59.7219 62.6701 49.7607 73.7349 52.3691C81.6572 54.2364 89.2624 58.2397 98.3951 58.5601C111.298 59.0099 116.198 52.2364 128.169 51.7704Z" fill="#60350A"/>
<path fill-rule="evenodd" clip-rule="evenodd" d="M104.903 124.9C106.164 125.111 107.456 125.051 108.691 124.723C109.927 124.395 111.078 123.806 112.068 122.997C114.398 120.311 116.298 116.496 112.764 114.444C109.314 111.994 105.351 110.364 101.175 109.68C96.9747 110.353 92.9845 111.98 89.5116 114.437C85.1751 116.945 87.8288 120.311 90.1621 122.997C91.1521 123.806 92.3034 124.395 93.5391 124.723C94.7747 125.051 96.0663 125.111 97.3272 124.9C94.7026 115.761 107.531 115.761 104.903 124.9Z" fill="#FFE8BE"/>
</g>
<defs>
<clipPath id="clip0_1_160">
<rect width="200" height="200" fill="white"/>
</clipPath>
</defs>
</svg>
