<svg width="200" height="200" viewBox="0 0 200 200" fill="none" xmlns="http://www.w3.org/2000/svg">
<g clip-path="url(#clip0_1_84)">
<path fill-rule="evenodd" clip-rule="evenodd" d="M100.741 27.2881C169.612 27.2881 142.771 141.418 100.741 141.418C61.0455 141.418 31.8707 27.2881 100.741 27.2881Z" fill="#FFE8BE"/>
<path d="M100 200C155.228 200 200 155.228 200 100C200 44.7715 155.228 0 100 0C44.7715 0 0 44.7715 0 100C0 155.228 44.7715 200 100 200Z" fill="#58B0E0"/>
<path fill-rule="evenodd" clip-rule="evenodd" d="M147.208 64.683L52.7963 65.2494C52.7963 65.2494 56.1879 117.508 44.3205 133.89H159.858C156.881 129.521 149.007 128.114 147.208 64.683Z" fill="#60350A"/>
<path fill-rule="evenodd" clip-rule="evenodd" d="M58.6895 147.57L82.01 137.256L119.389 136.285L143.402 148.897L126.065 185.192L101.428 198.421L75.942 184.344L58.6895 147.57Z" fill="#D5E1ED"/>
<path fill-rule="evenodd" clip-rule="evenodd" d="M80.0779 125.178L121.926 125.45V154.412L80.0779 154.136V125.178Z" fill="#F9DCA4"/>
<path opacity="0.11" fill-rule="evenodd" clip-rule="evenodd" d="M121.932 125.496V137.081C121.978 138.405 121.935 139.731 121.803 141.049C121.608 142.51 121.269 143.949 120.79 145.344C106.648 158.823 83.9647 147.868 80.3692 124.848L121.932 125.496Z" fill="black"/>
<path fill-rule="evenodd" clip-rule="evenodd" d="M170.865 170.554C161.495 179.966 150.345 187.417 138.064 192.472C125.783 197.527 112.619 200.086 99.3387 199.997C86.0586 199.909 72.9291 197.176 60.7167 191.958C48.5044 186.74 37.4539 179.141 28.2104 169.606L32.1619 159.58L61.6216 146.24C72.1782 165.593 83.6605 183.535 101.483 196.256C117.615 182.828 130.683 166.098 139.806 147.195L166.162 159.664L170.865 170.554Z" fill="#434955"/>
<path fill-rule="evenodd" clip-rule="evenodd" d="M61.8449 78.2624C52.272 82.4372 60.4144 102.243 66.4403 102.156C63.9399 94.4084 62.3966 86.3844 61.8449 78.2624Z" fill="#F9DCA4"/>
<path fill-rule="evenodd" clip-rule="evenodd" d="M140.8 78.2592C150.379 82.4404 142.233 102.243 136.208 102.156C138.708 94.4074 140.25 86.3822 140.8 78.2592Z" fill="#F9DCA4"/>
<path fill-rule="evenodd" clip-rule="evenodd" d="M100.693 28.0454C128.92 28.0454 140.748 48.1102 141.473 71.3045C142.466 103.052 123.107 140.657 100.696 140.657C79.4663 140.657 59.5762 101.764 60.7834 69.6928C61.6248 47.1911 73.1265 28.0454 100.693 28.0454Z" fill="#FFE8BE"/>
<path fill-rule="evenodd" clip-rule="evenodd" d="M108.088 80.8514C113.145 77.7623 119.153 76.62 124.991 77.6378H125.007C141.687 79.6766 141.945 84.8611 140.324 86.0553C139.239 86.9521 138.37 88.0828 137.784 89.3628C137.421 92.7418 136.254 95.9846 134.379 98.8191C133.131 100.775 131.49 102.45 129.56 103.738C127.63 105.026 125.454 105.899 123.169 106.301C122.625 106.389 122.068 106.457 121.499 106.489C119.272 106.649 117.039 106.276 114.985 105.401C112.931 104.527 111.115 103.176 109.686 101.46C107.621 99.0347 106.001 96.2626 104.903 93.2721V93.2819C104.903 93.2819 102.324 87.9873 98.1977 92.9129C97.0894 96.0354 95.4226 98.9304 93.2786 101.457C91.85 103.173 90.0332 104.525 87.9786 105.4C85.924 106.275 83.6906 106.648 81.4631 106.489C80.9037 106.454 80.3463 106.391 79.7931 106.301C77.5083 105.899 75.332 105.025 73.4022 103.737C71.4724 102.449 69.8313 100.775 68.5827 98.8191C66.7088 95.9854 65.5413 92.7438 65.1782 89.366C64.6196 88.0817 63.7658 86.9474 62.6863 86.0553C61.0682 84.8579 61.3109 79.6702 77.9905 77.6313H77.997C83.8591 76.6187 89.8892 77.781 94.955 80.8999L94.9518 80.8967L94.9615 80.9032L95.6573 81.3271C97.5972 82.319 99.7595 82.7959 101.937 82.712C104.114 82.6281 106.233 81.9863 108.091 80.8482L108.088 80.8514ZM92.9679 82.9161C89.9603 81.179 86.5762 80.1971 83.1059 80.0545C79.6355 79.9119 76.1824 80.6129 73.0423 82.0974C68.1523 84.3174 66.6604 85.8838 68.5569 92.3336C69.0706 94.093 69.8474 95.7645 70.8611 97.2916C72.005 99.1529 73.5804 100.711 75.4539 101.835C77.3275 102.959 79.4441 103.615 81.6249 103.748C83.4367 103.873 85.2522 103.564 86.9212 102.849C88.5903 102.133 90.0651 101.03 91.2236 99.6314C93.1422 97.3618 94.6334 94.7631 95.6249 91.9615C97.8223 86.2009 98.4146 85.9323 92.9712 82.9161H92.9679ZM128.395 81.4598C125.291 80.2935 121.961 79.852 118.659 80.1689C115.358 80.4858 112.173 81.5527 109.347 83.2883C104.369 86.2365 105.275 86.7284 107.476 92.3174C108.455 94.9867 109.897 97.4626 111.735 99.6314C112.894 101.03 114.369 102.134 116.039 102.849C117.708 103.565 119.525 103.873 121.337 103.748C121.803 103.72 122.268 103.668 122.729 103.593C124.642 103.248 126.463 102.51 128.076 101.426C129.689 100.341 131.06 98.9333 132.101 97.2916C133.057 95.8518 133.803 94.2825 134.314 92.6314C136.586 85.3498 134.56 83.7284 128.398 81.4631L128.395 81.4598Z" fill="#464449"/>
<path fill-rule="evenodd" clip-rule="evenodd" d="M57.8966 82.8741C57.8966 80.8093 61.0811 80.0067 63.0682 92.3984C64.6728 87.3368 65.7104 82.1128 66.162 76.8223C69.9226 77.5504 73.5342 86.0391 72.3983 93.4825C82.6443 90.9679 108.978 75.0779 117.541 53.5989C139.457 66.2235 139.337 92.7382 139.337 92.7382C139.337 92.7382 140.496 86.5893 141.143 81.3595C141.356 79.6184 142.091 78.9873 143.725 80.6702C155.577 56.1264 136.894 18.6085 101.285 18.0259C52.3918 17.2298 46.1717 70.175 57.8999 82.8773L57.8966 82.8741Z" fill="#8A5C42"/>
<path fill-rule="evenodd" clip-rule="evenodd" d="M80.1459 137.318C85.2591 144.937 92.5471 150.842 101.062 154.263L87.4437 174.146L68.2947 142.496L80.1459 137.318Z" fill="white"/>
<path fill-rule="evenodd" clip-rule="evenodd" d="M121.949 137.318C116.835 144.937 109.547 150.841 101.033 154.263L114.654 174.146L133.92 142.858L121.949 137.318Z" fill="white"/>
<path d="M101.046 172.82C102.546 172.82 103.761 171.605 103.761 170.105C103.761 168.605 102.546 167.389 101.046 167.389C99.5462 167.389 98.3305 168.605 98.3305 170.105C98.3305 171.605 99.5462 172.82 101.046 172.82Z" fill="#434955"/>
<path d="M101.046 184.888C102.546 184.888 103.761 183.673 103.761 182.173C103.761 180.673 102.546 179.457 101.046 179.457C99.5462 179.457 98.3305 180.673 98.3305 182.173C98.3305 183.673 99.5462 184.888 101.046 184.888Z" fill="#434955"/>
<path fill-rule="evenodd" clip-rule="evenodd" d="M135.913 80.0553C141.687 82.3595 141.476 85.1718 140.337 86.0132C139.252 86.9101 138.383 88.0408 137.797 89.3207C137.544 91.6591 136.907 93.9399 135.913 96.0715V80.0553ZM66.4339 94.5505C65.8019 92.8673 65.3844 91.1113 65.1911 89.3239C64.6328 88.0395 63.779 86.9052 62.6992 86.0132C61.6086 85.2074 61.3627 82.5828 66.4339 80.3368V94.5505Z" fill="#464449"/>
</g>
<defs>
<clipPath id="clip0_1_84">
<rect width="200" height="200" fill="white"/>
</clipPath>
</defs>
</svg>
