<svg width="35" height="35" viewBox="0 0 35 35" fill="none" xmlns="http://www.w3.org/2000/svg">
<g clip-path="url(#clip0_1_256)">
<path fill-rule="evenodd" clip-rule="evenodd" d="M29.2606 21.1767C28.5134 21.8984 28.1739 22.9384 28.3489 23.9584L29.4776 30.485C29.8294 32.5167 28.2019 34.1667 26.3556 34.1667C25.8691 34.1667 25.3669 34.0517 24.8804 33.7984L18.9741 30.7167C18.5121 30.4767 18.0064 30.3567 17.4989 30.3567C16.9931 30.3567 16.4874 30.4767 16.0254 30.7167L10.1191 33.7984C9.63262 34.0517 9.13037 34.1667 8.64387 34.1667C6.79762 34.1667 5.17012 32.5167 5.52187 30.485L6.65062 23.9584C6.82562 22.9384 6.48612 21.8984 5.73887 21.1767L0.959613 16.555C-0.919888 14.7367 0.117868 11.5684 2.71487 11.1934L9.31937 10.2417C10.3519 10.0934 11.2444 9.45005 11.7046 8.52172L14.6586 2.58503C15.2396 1.4167 16.3701 0.833374 17.4989 0.833374C18.6294 0.833374 19.7599 1.4167 20.3409 2.58503L23.2949 8.52172C23.7551 9.45005 24.6476 10.0934 25.6801 10.2417L32.2846 11.1934C34.8816 11.5684 35.9194 14.7367 34.0399 16.555L29.2606 21.1767Z" fill="black"/>
</g>
<defs>
<clipPath id="clip0_1_256">
<rect width="35" height="35" fill="white"/>
</clipPath>
</defs>
</svg>
